<?xml version="1.0" standalone="no"?>
<!DOCTYPE svg PUBLIC "-//W3C//DTD SVG 1.1//EN" "http://www.w3.org/Graphics/SVG/1.1/DTD/svg11.dtd">
<svg width="200" height="234.36275740666068" version="1.1" xmlns="http://www.w3.org/2000/svg">
  <title>Hexagonal sigma maze with 5 cells side</title>
  <desc>Hexagonal sigma maze with 5 cells side generated by The Maze Generator Website (https://www.mazegenerator.net/).</desc>
  <g fill="none" stroke="#000000" stroke-width="2" stroke-linecap="round" stroke-linejoin="round">
    <polyline points="65,26.248711305964278 72,14.124355652982137 86,14.124355652982137 93,1.9999999999999965" />
    <polyline points="107,1.9999999999999965 114,14.124355652982137 128,14.124355652982137 135,26.248711305964278" />
    <polyline points="23,50.497422611928556 30,38.373066958946417 44,38.373066958946417 51,26.248711305964278 65,26.248711305964278" />
    <polyline points="65,50.497422611928556 72,38.373066958946417 86,38.373066958946417 93,26.248711305964278 107,26.248711305964278 114,38.373066958946417 107,50.497422611928556" />
    <polyline points="114,38.373066958946417 128,38.373066958946417 135,50.497422611928556" />
    <polyline points="135,26.248711305964278 149,26.248711305964278 156,38.373066958946417 170,38.373066958946417 177,50.497422611928556" />
    <polyline points="9,74.746133917892848 2,62.621778264910709 9,50.49742261192857 23,50.49742261192857" />
    <polyline points="23,74.746133917892848 30,62.621778264910709 44,62.621778264910709 51,50.49742261192857 65,50.49742261192857" />
    <polyline points="72,62.621778264910709 86,62.621778264910709 93,74.746133917892848" />
    <line x1="86" y1="62.621778264910709" x2="93" y2="50.49742261192857" />
    <polyline points="114,62.621778264910709 128,62.621778264910709 135,74.746133917892848" />
    <polyline points="135,50.49742261192857 149,50.49742261192857 156,62.621778264910709 149,74.746133917892848" />
    <polyline points="156,62.621778264910709 170,62.621778264910709 177,50.49742261192857 191,50.49742261192857 198,62.621778264910709 191,74.746133917892848" />
    <polyline points="9,98.994845223857126 2,86.87048957087498 9,74.746133917892834" />
    <polyline points="23,74.746133917892834 30,86.87048957087498 23,98.994845223857126" />
    <line x1="30" y1="86.87048957087498" x2="44" y2="86.87048957087498" />
    <polyline points="51,74.746133917892834 65,74.746133917892834 72,86.87048957087498 65,98.994845223857126" />
    <polyline points="72,86.87048957087498 86,86.87048957087498 93,74.746133917892834 107,74.746133917892834 114,86.87048957087498 128,86.87048957087498 135,98.994845223857126" />
    <line x1="128" y1="86.87048957087498" x2="135" y2="74.746133917892834" />
    <line x1="149" y1="74.746133917892834" x2="156" y2="86.87048957087498" />
    <polyline points="177,98.994845223857126 170,86.87048957087498 177,74.746133917892834" />
    <polyline points="191,74.746133917892834 198,86.87048957087498 191,98.994845223857126" />
    <polyline points="9,123.2435565298214 2,111.11920087683926 9,98.994845223857112" />
    <polyline points="23,98.994845223857112 30,111.11920087683926 23,123.2435565298214" />
    <line x1="30" y1="111.11920087683926" x2="44" y2="111.11920087683926" />
    <polyline points="51,98.994845223857112 65,98.994845223857112 72,111.11920087683926 65,123.2435565298214" />
    <polyline points="135,123.2435565298214 128,111.11920087683926 135,98.994845223857112" />
    <polyline points="149,98.994845223857112 156,111.11920087683926 149,123.2435565298214" />
    <polyline points="170,111.11920087683926 177,98.994845223857112 191,98.994845223857112 198,111.11920087683926 191,123.2435565298214" />
    <polyline points="9,147.4922678357857 2,135.36791218280357 9,123.24355652982142" />
    <polyline points="23,147.4922678357857 30,135.36791218280357 44,135.36791218280357 51,123.24355652982142" />
    <polyline points="65,123.24355652982142 72,135.36791218280357 65,147.4922678357857" />
    <polyline points="72,135.36791218280357 86,135.36791218280357 93,147.4922678357857" />
    <polyline points="107,147.4922678357857 114,135.36791218280357 128,135.36791218280357 135,123.24355652982142" />
    <polyline points="149,123.24355652982142 156,135.36791218280357 149,147.4922678357857" />
    <polyline points="156,135.36791218280357 170,135.36791218280357 177,123.24355652982142" />
    <polyline points="191,123.24355652982142 198,135.36791218280357 191,147.4922678357857" />
    <polyline points="9,171.74097914174996 2,159.61662348876783 9,147.4922678357857 23,147.4922678357857" />
    <polyline points="30,159.61662348876783 44,159.61662348876783 51,147.4922678357857 65,147.4922678357857 72,159.61662348876783" />
    <polyline points="93,171.74097914174996 86,159.61662348876783 93,147.4922678357857" />
    <polyline points="107,147.4922678357857 114,159.61662348876783 128,159.61662348876783 135,147.4922678357857 149,147.4922678357857" />
    <polyline points="149,171.74097914174996 156,159.61662348876783 170,159.61662348876783 177,147.4922678357857 191,147.4922678357857 198,159.61662348876783 191,171.74097914174996" />
    <polyline points="9,171.74097914174996 23,171.74097914174996 30,183.86533479473209 44,183.86533479473209 51,195.98969044771422" />
    <polyline points="44,183.86533479473209 51,171.74097914174996 65,171.74097914174996" />
    <polyline points="72,183.86533479473209 86,183.86533479473209 93,171.74097914174996 107,171.74097914174996 114,183.86533479473209 128,183.86533479473209 135,171.74097914174996 149,171.74097914174996" />
    <polyline points="149,195.98969044771422 156,183.86533479473209 170,183.86533479473209 177,171.74097914174996 191,171.74097914174996" />
    <polyline points="51,195.98969044771428 65,195.98969044771428 72,208.11404610069641 86,208.11404610069641 93,220.23840175367855" />
    <polyline points="86,208.11404610069641 93,195.98969044771428 107,195.98969044771428" />
    <polyline points="107,220.23840175367855 114,208.11404610069641 128,208.11404610069641 135,195.98969044771428 149,195.98969044771428" />
    <line x1="107" y1="220.23840175367855" x2="93" y2="220.23840175367855" />
  </g>
</svg>
